<svg xmlns="http://www.w3.org/2000/svg" width="95.667" height="95.667" viewBox="0 0 95.667 95.667"><path d="M39.173 72.344L78.62 49.567a1.998 1.998 0 0 0 0-3.463l-39.447-22.78a2.001 2.001 0 0 0-3 1.732v10.605H2.121a2 2 0 0 0-2 2v20.344a2 2 0 0 0 2 2h34.053v10.604a1.997 1.997 0 0 0 2 2c.345 0 .69-.088.999-.265z"/><path d="M80.775 0H40.026a2 2 0 0 0-2 2v6a2 2 0 0 0 2 2h40.749a4.776 4.776 0 0 1 4.771 4.771v66.125a4.777 4.777 0 0 1-4.771 4.771H40.026a2 2 0 0 0-2 2v6a2 2 0 0 0 2 2h40.749c8.146 0 14.771-6.627 14.771-14.771V14.772C95.546 6.627 88.92 0 80.775 0z"/></svg>